<svg version="1.1" id="Layer_1" xmlns="http://www.w3.org/2000/svg" xmlns:xlink="http://www.w3.org/1999/xlink" x="0px" y="0px"
	 width="100%" viewBox="0 0 500 500" enable-background="new 0 0 500 500" xml:space="preserve">
<path fill="#000000" opacity="1.000000" stroke="none" 
	d="
M270.000000,501.000000 
	C180.000015,501.000000 90.500046,501.000000 1.000048,501.000000 
	C1.000032,334.333405 1.000032,167.666794 1.000016,1.000138 
	C167.666565,1.000092 334.333130,1.000092 500.999756,1.000046 
	C500.999847,167.666519 500.999847,334.333038 500.999939,500.999786 
	C424.166656,501.000000 347.333344,501.000000 270.000000,501.000000 
M348.648560,244.722656 
	C357.475372,238.262573 363.794891,238.533005 370.269623,246.603409 
	C370.900177,249.962006 369.762390,251.419769 366.101776,251.345306 
	C361.716431,251.256073 357.318726,251.772873 352.086853,252.095459 
	C349.803101,252.480850 347.485168,252.726776 345.241516,253.275909 
	C335.814087,255.583206 331.273102,261.191986 330.446167,271.378082 
	C329.746307,279.998871 334.830261,287.861816 343.795654,291.396393 
	C353.220490,294.066559 362.289825,293.321167 369.993683,288.652527 
	C372.117188,290.054932 373.542786,291.727112 375.121216,291.886475 
	C378.389679,292.216553 381.740387,291.609863 385.055420,291.635345 
	C388.466888,291.661621 389.209747,289.994202 388.979462,286.911469 
	C388.460419,279.962524 388.136597,272.996613 387.862274,266.032501 
	C387.600464,259.386353 387.780090,252.712341 387.270599,246.088684 
	C386.368317,234.358688 377.754303,226.320145 365.691284,225.280060 
	C358.785156,223.882599 352.257538,225.063660 345.829376,227.806015 
	C335.090546,232.387360 334.529419,234.092270 340.236908,243.803955 
	C342.578369,247.788162 344.794434,248.600082 348.648560,244.722656 
M172.489731,286.942352 
	C181.819214,293.281738 192.244507,293.070923 202.644775,291.366791 
	C206.588760,290.720551 211.102997,289.130096 213.863754,286.438263 
	C227.175873,273.458527 230.852707,261.154907 222.938660,242.562576 
	C219.937943,235.513016 211.109283,228.370682 204.189087,227.194855 
	C203.778610,227.088791 203.368134,226.982727 202.594589,226.349548 
	C197.538635,226.059906 192.351318,224.900604 187.450897,225.640717 
	C171.611542,228.032913 160.771133,240.171097 159.709229,256.266663 
	C158.919800,268.232330 162.241867,278.741486 172.489731,286.942352 
M321.989685,252.090424 
	C321.668274,250.360565 321.125732,248.637756 321.070282,246.899414 
	C320.945129,242.973801 321.296570,239.024231 321.026886,235.113861 
	C320.535309,227.988052 319.733490,220.883621 319.386078,213.158112 
	C319.181061,202.036331 319.181061,202.036560 308.234375,202.069260 
	C306.906555,202.073227 305.531433,202.300125 304.259430,202.034668 
	C299.692078,201.081451 297.631927,203.858337 296.171295,207.380142 
	C291.593079,218.419144 287.043304,229.470840 282.617279,240.571381 
	C281.536346,243.282410 280.970734,246.198898 279.795074,249.672699 
	C278.595947,248.769135 277.396820,247.865555 275.974640,246.487579 
	C275.692841,246.296082 275.411041,246.104599 275.068756,245.214493 
	C274.746857,244.420242 274.424927,243.626007 274.099457,242.915680 
	C274.099457,242.915680 274.183441,242.914978 274.056732,242.149811 
	C268.838470,229.717682 263.683777,217.257904 258.305115,204.895538 
	C257.758209,203.638550 255.900024,202.215546 254.589310,202.153214 
	C248.488739,201.863159 242.366699,202.024765 235.811417,202.024765 
	C234.089478,231.981995 232.402115,261.337585 230.698868,290.969635 
	C236.557388,290.969635 241.722351,291.133606 246.860336,290.834412 
	C247.916138,290.772919 249.614594,289.068024 249.743851,287.970734 
	C250.300613,283.243927 250.421356,278.463013 250.631241,273.698700 
	C251.137146,262.213440 251.604019,250.726456 252.086639,239.240173 
	C252.411453,239.172104 252.736252,239.104050 253.061050,239.035980 
	C255.642563,243.032837 258.224060,247.029694 260.972229,251.751038 
	C262.660706,255.203308 264.349213,258.655579 265.778748,262.616821 
	C268.410004,268.215485 270.957275,273.855743 273.703491,279.397430 
	C275.386322,282.793335 279.924347,283.649658 281.654938,280.820404 
	C283.144440,278.385284 283.859528,275.476471 285.032379,272.558838 
	C285.032379,272.558838 284.995575,272.314728 285.650055,271.977142 
	C288.500122,265.804291 291.350189,259.631409 294.790131,252.863831 
	C297.109711,247.792831 299.429260,242.721832 301.748840,237.650818 
	C302.207184,237.783783 302.665527,237.916748 303.123871,238.049713 
	C304.064087,245.722580 305.004272,253.395432 305.402710,261.659332 
	C305.654877,269.962219 305.983154,278.263855 306.119171,286.568634 
	C306.168915,289.607574 307.008148,291.229309 310.435730,291.004395 
	C314.081635,290.765137 317.760834,290.828461 321.415436,290.988861 
	C324.519409,291.125092 325.386902,290.095520 325.037415,286.883942 
	C323.807800,275.583954 322.918335,264.246979 321.989685,252.090424 
M91.063133,261.092194 
	C91.063133,261.092194 91.110085,261.123688 91.943146,261.078186 
	C92.271561,261.022552 92.600876,260.971710 92.928253,260.910492 
	C108.425667,258.013428 117.509644,247.822983 117.721031,233.099014 
	C117.923744,218.979645 107.633186,204.849747 93.535385,203.203354 
	C80.589355,201.691452 67.327698,202.882141 53.400326,202.882141 
	C53.400326,215.281967 53.400326,228.191971 53.445499,242.016418 
	C53.496819,254.317444 53.618584,266.618683 53.581142,278.919434 
	C53.536983,293.428101 53.003326,291.232941 66.772217,291.461914 
	C70.243561,291.519623 71.883057,290.068573 71.679489,286.325531 
	C71.381607,280.848236 71.457497,275.348877 71.435898,269.858704 
	C71.401802,261.191132 70.921913,262.413086 78.814743,262.211853 
	C80.884758,262.159119 82.936867,261.404022 85.802200,261.007568 
	C86.878670,261.000610 87.955132,260.993622 89.357445,261.342712 
	C89.943321,261.251617 90.529190,261.160522 91.063133,261.092194 
M453.629211,243.334839 
	C453.433289,242.709503 453.237335,242.084183 452.883362,240.707245 
	C448.966125,227.293793 430.533997,219.764282 413.850647,229.973419 
	C409.024017,222.998154 402.326660,228.800735 396.061035,226.526169 
	C396.061035,229.230667 396.059937,231.015106 396.061218,232.799561 
	C396.072632,248.615982 396.076569,264.432404 396.098663,280.248810 
	C396.116028,292.694580 397.195221,293.604462 409.746063,291.862061 
	C409.910370,291.839233 410.071594,291.756409 410.233337,291.759033 
	C413.682068,291.815094 414.647644,290.038635 414.610870,286.745270 
	C414.490143,275.925568 414.608307,265.102570 414.699097,254.281387 
	C414.749847,248.231949 417.215637,244.495590 421.842041,243.178802 
	C429.270447,241.064499 431.884155,242.000259 436.042938,248.918884 
	C436.142456,251.064178 436.293579,253.208542 436.332947,255.354935 
	C436.542114,266.766327 436.723236,278.178223 437.142151,290.404114 
	C443.179840,292.447601 449.192505,293.952881 455.361755,288.961731 
	C455.138428,277.024078 454.915070,265.086395 454.821838,252.211929 
	C454.597473,251.001923 454.373138,249.791931 454.346069,248.088791 
	C454.199799,247.244125 454.053497,246.399460 453.771393,244.672104 
	C453.669769,244.392288 453.568146,244.112473 453.629211,243.334839 
M138.898132,232.699066 
	C139.222763,227.481537 136.264816,226.253357 131.765884,226.708984 
	C130.134781,226.874161 128.453415,226.837997 126.822701,226.651413 
	C123.324417,226.251114 121.986954,227.965363 122.057571,231.202713 
	C122.194160,237.464691 122.347847,243.726303 122.511497,250.926392 
	C122.511497,264.504333 122.511497,278.082306 122.511497,292.039642 
	C126.952362,292.039642 130.609222,291.835022 134.233231,292.092621 
	C138.541275,292.398834 140.208176,290.780243 140.100052,286.379730 
	C139.863144,276.738129 139.800430,267.082153 140.043045,257.441498 
	C140.316010,246.595383 143.386276,243.700134 153.971817,242.985886 
	C155.351837,242.892776 157.665573,241.900665 157.831589,241.006485 
	C158.733276,236.149826 159.096481,231.193192 159.827393,224.635376 
	C154.935440,226.163712 151.408890,227.004929 148.100433,228.373413 
	C144.883377,229.704071 141.889832,231.575119 138.898132,232.699066 
z"/>
<path fill="#E2AB02" opacity="1.000000" stroke="none" 
	d="
M275.129242,245.913116 
	C275.411041,246.104599 275.692841,246.296082 275.824615,246.808533 
	C274.168457,247.854782 272.650696,249.204010 271.158630,249.176102 
	C268.012024,249.117294 266.942688,250.622513 267.073578,253.305038 
	C267.216034,256.225281 267.668762,259.130371 267.661438,262.041077 
	C266.903687,262.062683 266.470703,262.085266 266.037720,262.107849 
	C264.349213,258.655579 262.660706,255.203308 261.081879,251.145355 
	C259.447449,246.512939 257.830811,242.423157 255.886887,238.495331 
	C255.247498,237.203354 253.760834,236.330704 252.661606,235.266312 
	C251.787582,236.658371 250.230438,238.009964 250.145187,239.448746 
	C249.289780,253.886948 248.525543,268.334869 248.086121,282.790710 
	C247.954071,287.134766 246.844101,289.145020 242.112961,289.098907 
	C232.848297,289.008545 232.848770,289.216125 233.865524,279.885284 
	C233.937576,279.224091 233.934219,278.554718 233.966690,277.889191 
	C234.995514,256.799957 235.554565,235.673370 237.228287,214.635452 
	C238.244507,201.861984 236.559250,204.482758 248.609787,203.903534 
	C253.445984,203.671066 256.420868,205.092697 258.294281,209.606583 
	C261.594940,217.559296 265.363586,225.320084 268.569916,233.308273 
	C269.582794,235.831802 269.426208,238.824753 269.863831,242.035843 
	C270.460266,242.157227 272.321869,242.536102 274.183441,242.914978 
	C274.183441,242.914978 274.099457,242.915680 274.077454,243.217438 
	C274.413361,244.317184 274.771301,245.115143 275.129242,245.913116 
z"/>
<path fill="#E93509" opacity="1.000000" stroke="none" 
	d="
M436.914093,289.589935 
	C436.723236,278.178223 436.542114,266.766327 436.332947,255.354935 
	C436.293579,253.208542 436.142456,251.064178 436.157593,248.747757 
	C436.655151,253.801208 437.038116,259.025787 437.421082,264.250366 
	C438.107422,259.674225 438.566376,255.090500 438.905060,250.497925 
	C439.047852,248.561890 439.452423,246.424606 438.840271,244.696884 
	C437.305634,240.365677 428.128479,235.904572 422.801056,236.504135 
	C418.846466,236.949188 411.396667,244.230484 411.152557,248.490952 
	C410.803040,254.591980 410.819580,260.724884 410.946136,266.838654 
	C411.038849,271.315582 411.785126,275.781860 411.820129,280.256195 
	C411.849396,283.994720 410.852173,287.043030 405.914795,287.116760 
	C401.072205,287.189026 399.805817,284.755463 399.982208,280.606049 
	C400.349335,271.969910 400.673279,263.331818 401.076416,254.697372 
	C401.121582,253.730087 401.641022,252.794617 401.806854,251.821609 
	C402.471405,247.922546 403.459381,244.029633 403.617218,240.105850 
	C403.805023,235.439041 405.011871,234.420456 409.419312,235.322632 
	C411.715332,235.792572 414.927155,235.890076 416.593506,234.643204 
	C424.983368,228.365372 433.607544,234.850006 442.009460,233.673630 
	C442.369843,233.623154 442.830933,234.181442 443.222961,234.484787 
	C450.359894,240.007690 452.785614,247.672455 452.931061,256.273804 
	C453.060120,263.903503 452.973907,271.536774 452.992981,279.168457 
	C453.017242,288.882599 449.735260,291.350708 440.231750,288.676483 
	C439.247711,288.399567 438.366394,287.757721 437.246887,287.188324 
	C437.095612,288.279877 437.004852,288.934906 436.914093,289.589935 
z"/>
<path fill="#E99D03" opacity="1.000000" stroke="none" 
	d="
M267.986206,262.042084 
	C267.668762,259.130371 267.216034,256.225281 267.073578,253.305038 
	C266.942688,250.622513 268.012024,249.117294 271.158630,249.176102 
	C272.650696,249.204010 274.168457,247.854782 275.936157,247.045731 
	C277.396820,247.865555 278.595947,248.769135 280.193787,249.340302 
	C280.592468,249.007904 281.016815,248.996048 281.196045,248.862198 
	C281.603210,248.533005 281.796936,248.308182 281.978821,248.028717 
	C282.001160,248.003525 282.049866,247.957031 282.227539,247.823792 
	C282.628296,247.491501 282.815765,247.263199 282.970947,246.992828 
	C282.974304,246.979996 282.974945,246.950668 283.296967,246.841400 
	C284.070679,246.264984 284.661285,245.871338 284.953247,245.319641 
	C289.536102,236.659668 294.068939,227.973251 298.639862,219.306946 
	C300.264374,216.226944 301.561523,212.841858 303.780853,210.260376 
	C305.005981,208.835342 307.914520,208.107758 309.909546,208.348312 
	C311.326508,208.519150 313.224060,210.647934 313.619446,212.225571 
	C314.773010,216.828293 315.431091,221.574661 316.005096,226.298538 
	C316.820374,233.008072 317.213287,239.772339 318.156769,246.461014 
	C318.479156,248.746796 319.916992,250.875229 320.872925,253.527863 
	C321.262787,262.006104 321.624908,270.031982 321.659180,277.894775 
	C320.705200,276.087311 320.008972,274.465637 319.467834,272.793793 
	C318.412994,269.534912 317.858154,266.026611 316.270966,263.063660 
	C315.447266,261.525940 312.861481,260.932068 311.743195,260.294556 
	C310.245880,265.337555 309.105499,269.178406 307.945679,272.619049 
	C307.265656,268.502014 306.605072,264.785156 305.944489,261.068298 
	C305.004272,253.395432 304.064087,245.722580 303.123871,238.049713 
	C302.665527,237.916748 302.207184,237.783783 301.748840,237.650818 
	C299.429260,242.721832 297.109711,247.792831 294.329529,253.349243 
	C290.911133,259.994690 287.953369,266.154694 284.995575,272.314728 
	C284.995575,272.314728 285.032379,272.558838 284.667603,272.813110 
	C283.471741,274.360382 282.640625,275.653412 281.437988,276.956665 
	C278.710999,275.967743 276.355530,274.968597 273.854553,273.786407 
	C273.505798,273.365753 273.283386,273.147675 272.976837,272.680054 
	C272.635315,271.939392 272.358795,271.467865 272.080872,270.743988 
	C272.081421,270.323425 272.083374,270.155212 272.435303,270.026855 
	C273.732269,270.914795 274.566895,272.251556 275.651581,272.500946 
	C277.457855,272.916229 280.800537,273.230194 281.095734,272.548035 
	C282.768341,268.682892 284.468658,264.555328 284.726318,260.427643 
	C284.997437,256.084717 278.418488,251.934036 275.751587,254.207443 
	C272.769440,256.749573 269.293335,259.431396 272.322906,264.263641 
	C272.708221,264.878174 272.161346,266.077179 271.787842,266.880402 
	C271.019135,266.493835 270.508942,266.232269 269.931061,265.700378 
	C269.586884,264.953766 269.310364,264.477448 268.895325,263.815918 
	C268.560364,263.392548 268.341003,263.177826 268.071472,262.750305 
	C268.044220,262.514099 267.986206,262.042084 267.986206,262.042084 
z"/>
<path fill="#01D77A" opacity="1.000000" stroke="none" 
	d="
M138.798157,233.208893 
	C141.889832,231.575119 144.883377,229.704071 148.100433,228.373413 
	C151.408890,227.004929 154.935440,226.163712 159.827393,224.635376 
	C159.096481,231.193192 158.733276,236.149826 157.831589,241.006485 
	C157.665573,241.900665 155.351837,242.892776 153.971817,242.985886 
	C143.386276,243.700134 140.316010,246.595383 140.043045,257.441498 
	C139.800430,267.082153 139.863144,276.738129 140.100052,286.379730 
	C140.208176,290.780243 138.541275,292.398834 134.233231,292.092621 
	C130.609222,291.835022 126.952362,292.039642 122.511497,292.039642 
	C122.511497,278.082306 122.511497,264.504333 122.725906,250.810120 
	C123.127266,254.812576 123.314224,258.931335 123.501175,263.050079 
	C123.927765,263.051453 124.354347,263.052856 124.780937,263.054230 
	C124.780937,251.650833 124.780937,240.247437 124.780937,228.577225 
	C130.662323,229.100418 135.843674,227.857025 138.798157,233.208893 
z"/>
<path fill="#03BCEA" opacity="1.000000" stroke="none" 
	d="
M53.400326,241.101959 
	C53.400326,228.191971 53.400326,215.281967 53.400326,202.882141 
	C67.327698,202.882141 80.589355,201.691452 93.535385,203.203354 
	C107.633186,204.849747 117.923744,218.979645 117.721031,233.099014 
	C117.509644,247.822983 108.425667,258.013428 92.928253,260.910492 
	C92.600876,260.971710 92.271561,261.022552 91.539436,260.727661 
	C92.192680,259.549194 93.261230,258.735504 94.304565,257.890686 
	C98.816299,254.237411 104.493080,251.357697 107.572227,246.745361 
	C113.173767,238.354645 112.468674,229.335999 105.445076,221.490784 
	C104.314972,220.228500 102.610199,219.480698 101.171082,218.495071 
	C100.660484,220.440094 99.666725,222.407959 99.757317,224.324554 
	C99.880264,226.925522 101.136230,229.459427 101.375870,232.070770 
	C102.237961,241.464691 94.253517,248.544327 86.299347,245.694885 
	C88.313499,244.889236 90.082817,244.401062 91.718979,243.630264 
	C95.829971,241.693527 99.533325,235.590820 98.994781,231.862793 
	C98.087234,225.580429 91.246292,219.510345 84.562759,219.282608 
	C80.086678,219.130051 75.600464,219.274551 71.018906,218.987366 
	C71.027290,217.906647 70.945358,217.031677 71.274887,216.357971 
	C73.303490,212.210495 72.676247,210.839371 68.239082,210.030746 
	C66.777267,209.764343 65.314590,209.501648 63.848827,209.258179 
	C60.740040,208.741791 59.342678,210.037170 58.986664,213.212402 
	C58.128662,220.864700 57.084896,228.499268 55.930721,236.112885 
	C55.672497,237.816284 54.653782,239.404404 53.836365,241.032639 
	C53.687546,241.019684 53.400326,241.101959 53.400326,241.101959 
z"/>
<path fill="#0481E1" opacity="1.000000" stroke="none" 
	d="
M53.422913,241.559189 
	C53.400326,241.101959 53.687546,241.019684 53.865013,241.497803 
	C54.042484,250.343918 54.042484,258.711884 54.042484,267.079865 
	C55.634529,260.041626 56.277302,252.969803 57.088070,245.917297 
	C57.673046,240.828796 58.374573,235.746887 59.273674,230.706573 
	C59.471802,229.595886 60.567020,228.129120 61.543968,227.846893 
	C62.247440,227.643661 63.944256,228.936615 64.325157,229.905365 
	C65.749825,233.528778 66.557167,237.406235 68.111641,240.963058 
	C69.052757,243.116470 70.942703,244.855194 72.379128,246.814331 
	C72.351891,246.848450 72.403755,246.773010 72.626556,247.059540 
	C82.562164,251.579575 91.921082,247.808243 102.110802,244.926544 
	C97.495956,258.869812 84.761421,256.647217 75.516670,260.335724 
	C75.688995,260.850983 75.861320,261.366241 76.033646,261.881500 
	C79.021500,261.578156 82.009346,261.274811 84.997200,260.971466 
	C82.936867,261.404022 80.884758,262.159119 78.814743,262.211853 
	C70.921913,262.413086 71.401802,261.191132 71.435898,269.858704 
	C71.457497,275.348877 71.381607,280.848236 71.679489,286.325531 
	C71.883057,290.068573 70.243561,291.519623 66.772217,291.461914 
	C53.003326,291.232941 53.536983,293.428101 53.581142,278.919434 
	C53.618584,266.618683 53.496819,254.317444 53.422913,241.559189 
z"/>
<path fill="#EA5D05" opacity="1.000000" stroke="none" 
	d="
M352.926392,252.027222 
	C357.318726,251.772873 361.716431,251.256073 366.101776,251.345306 
	C369.762390,251.419769 370.900177,249.962006 370.411682,245.887817 
	C370.420685,244.397659 370.561768,243.212570 370.112061,242.912338 
	C365.847992,240.065628 362.891205,234.791779 356.545807,235.677490 
	C355.323486,235.848083 353.948120,234.922562 353.228058,234.690857 
	C354.581970,231.805298 355.696075,229.430862 357.286011,227.020981 
	C360.657257,226.996597 363.552673,227.007660 366.807495,227.044250 
	C368.621307,227.410187 370.138611,227.587662 371.518890,228.120300 
	C376.481934,230.035492 381.188385,233.057266 382.363037,238.234207 
	C385.099518,250.294266 386.921936,262.563934 385.533325,274.884125 
	C384.480072,272.138855 383.396667,269.590637 383.105621,266.954926 
	C382.652191,262.848541 383.129700,258.615173 382.434204,254.569458 
	C382.064056,252.416458 381.019348,248.805740 377.149506,251.446030 
	C374.956024,252.942535 372.825500,254.531250 369.839294,256.671387 
	C370.444458,257.941284 371.216156,260.001831 372.351746,261.837189 
	C373.941345,264.406494 375.313965,266.792511 372.064819,268.688507 
	C371.099762,266.325745 370.659485,263.484619 369.108429,262.607269 
	C364.553284,260.030640 351.890717,262.959106 348.338715,266.820007 
	C344.439789,271.057892 345.871643,276.487396 351.395386,278.047729 
	C354.240326,278.851379 357.169891,279.355438 359.855042,280.272278 
	C359.154907,280.979889 358.595551,281.355347 358.180084,281.851318 
	C357.212006,283.007141 356.313171,284.220978 355.386322,285.411316 
	C356.816528,285.938385 358.255829,286.926270 359.675018,286.898132 
	C362.772919,286.836731 365.860596,286.258606 368.766602,286.193054 
	C362.085907,291.399628 354.509064,290.929016 346.742065,290.635803 
	C345.426392,289.942291 344.290588,289.577667 343.341766,288.936401 
	C337.384552,284.910065 332.352325,280.384430 332.971741,272.160522 
	C333.557587,264.382080 337.151672,259.040222 344.570282,256.425934 
	C347.057648,255.549408 349.578461,254.767700 352.539673,253.950806 
	C357.787567,253.840607 362.579773,253.722244 367.371979,253.603867 
	C367.353180,253.089462 367.334412,252.575043 367.315613,252.060638 
	C362.552002,252.060638 357.788391,252.060638 352.995636,252.065674 
	C352.966492,252.070724 352.926392,252.027222 352.926392,252.027222 
z"/>
<path fill="#EC481D" opacity="1.000000" stroke="none" 
	d="
M437.028137,289.997009 
	C437.004852,288.934906 437.095612,288.279877 437.246887,287.188324 
	C438.366394,287.757721 439.247711,288.399567 440.231750,288.676483 
	C449.735260,291.350708 453.017242,288.882599 452.992981,279.168457 
	C452.973907,271.536774 453.060120,263.903503 452.931061,256.273804 
	C452.785614,247.672455 450.359894,240.007690 443.222961,234.484787 
	C442.830933,234.181442 442.369843,233.623154 442.009460,233.673630 
	C433.607544,234.850006 424.983368,228.365372 416.593506,234.643204 
	C414.927155,235.890076 411.715332,235.792572 409.419312,235.322632 
	C405.011871,234.420456 403.805023,235.439041 403.617218,240.105850 
	C403.459381,244.029633 402.471405,247.922546 401.806854,251.821609 
	C401.641022,252.794617 401.121582,253.730087 401.076416,254.697372 
	C400.673279,263.331818 400.349335,271.969910 399.982208,280.606049 
	C399.805817,284.755463 401.072205,287.189026 405.914795,287.116760 
	C410.852173,287.043030 411.849396,283.994720 411.820129,280.256195 
	C411.785126,275.781860 411.038849,271.315582 410.946136,266.838654 
	C410.819580,260.724884 410.803040,254.591980 411.152557,248.490952 
	C411.396667,244.230484 418.846466,236.949188 422.801056,236.504135 
	C428.128479,235.904572 437.305634,240.365677 438.840271,244.696884 
	C439.452423,246.424606 439.047852,248.561890 438.905060,250.497925 
	C438.566376,255.090500 438.107422,259.674225 437.421082,264.250366 
	C437.038116,259.025787 436.655151,253.801208 436.022522,248.371490 
	C431.884155,242.000259 429.270447,241.064499 421.842041,243.178802 
	C417.215637,244.495590 414.749847,248.231949 414.699097,254.281387 
	C414.608307,265.102570 414.490143,275.925568 414.610870,286.745270 
	C414.647644,290.038635 413.682068,291.815094 410.233337,291.759033 
	C410.071594,291.756409 409.910370,291.839233 409.746063,291.862061 
	C397.195221,293.604462 396.116028,292.694580 396.098663,280.248810 
	C396.076569,264.432404 396.072632,248.615982 396.061218,232.799561 
	C396.059937,231.015106 396.061035,229.230667 396.061035,226.526169 
	C402.326660,228.800735 409.024017,222.998154 413.850647,229.973419 
	C430.533997,219.764282 448.966125,227.293793 452.946381,241.323334 
	C453.161774,242.570511 453.314148,243.201584 453.466522,243.832657 
	C453.568146,244.112473 453.669769,244.392288 453.838837,245.368774 
	C453.987122,246.904266 454.067963,247.743103 454.148804,248.581940 
	C454.373138,249.791931 454.597473,251.001923 454.596466,253.040771 
	C454.251251,261.668182 454.010193,269.467529 454.061066,277.264984 
	C454.087891,281.370575 454.624878,285.472839 454.931549,289.576599 
	C449.192505,293.952881 443.179840,292.447601 437.028137,289.997009 
z"/>
<path fill="#03DC48" opacity="1.000000" stroke="none" 
	d="
M202.957657,226.876663 
	C203.368134,226.982727 203.778610,227.088791 204.909073,227.629730 
	C206.039444,228.974213 206.449844,229.883835 206.392181,230.750671 
	C201.984253,230.583923 198.032684,230.239319 194.110428,230.447311 
	C192.593979,230.527710 191.143951,231.860733 189.663651,232.623077 
	C190.881729,233.716583 191.971939,235.019791 193.345917,235.857620 
	C195.799698,237.353928 198.424713,238.569397 200.564682,239.926102 
	C198.523300,239.666779 196.905396,239.239731 195.265701,239.125488 
	C188.291916,238.639587 181.463806,239.874451 177.960846,246.341690 
	C174.849762,252.085464 172.930374,258.713440 176.933075,265.538757 
	C177.559540,266.540649 178.116745,267.257050 178.797241,268.227966 
	C178.954453,268.667969 178.988388,268.853455 178.805954,269.293213 
	C179.052582,271.608002 179.515594,273.668427 179.563828,275.786194 
	C177.659393,276.716461 176.169724,277.589447 174.680054,278.462433 
	C175.641800,279.878021 176.568192,281.319305 177.573990,282.702881 
	C178.910187,284.540955 180.308289,286.334015 181.273148,288.148468 
	C178.070923,287.118134 175.275330,286.085724 172.337860,284.706024 
	C166.049759,276.349335 163.016144,267.675446 163.698059,257.215729 
	C164.218140,249.238235 167.075745,242.652374 171.811783,236.927399 
	C178.559875,228.770203 187.961151,226.525818 198.238052,227.225998 
	C199.796097,227.332123 201.383713,227.003952 202.957657,226.876663 
z"/>
<path fill="#DEB524" opacity="1.000000" stroke="none" 
	d="
M274.120087,242.532394 
	C272.321869,242.536102 270.460266,242.157227 269.863831,242.035843 
	C269.426208,238.824753 269.582794,235.831802 268.569916,233.308273 
	C265.363586,225.320084 261.594940,217.559296 258.294281,209.606583 
	C256.420868,205.092697 253.445984,203.671066 248.609787,203.903534 
	C236.559250,204.482758 238.244507,201.861984 237.228287,214.635452 
	C235.554565,235.673370 234.995514,256.799957 233.966690,277.889191 
	C233.934219,278.554718 233.937576,279.224091 233.865524,279.885284 
	C232.848770,289.216125 232.848297,289.008545 242.112961,289.098907 
	C246.844101,289.145020 247.954071,287.134766 248.086121,282.790710 
	C248.525543,268.334869 249.289780,253.886948 250.145187,239.448746 
	C250.230438,238.009964 251.787582,236.658371 252.661606,235.266312 
	C253.760834,236.330704 255.247498,237.203354 255.886887,238.495331 
	C257.830811,242.423157 259.447449,246.512939 260.998535,250.783112 
	C258.224060,247.029694 255.642563,243.032837 253.061050,239.035980 
	C252.736252,239.104050 252.411453,239.172104 252.086639,239.240173 
	C251.604019,250.726456 251.137146,262.213440 250.631241,273.698700 
	C250.421356,278.463013 250.300613,283.243927 249.743851,287.970734 
	C249.614594,289.068024 247.916138,290.772919 246.860336,290.834412 
	C241.722351,291.133606 236.557388,290.969635 230.698868,290.969635 
	C232.402115,261.337585 234.089478,231.981995 235.811417,202.024765 
	C242.366699,202.024765 248.488739,201.863159 254.589310,202.153214 
	C255.900024,202.215546 257.758209,203.638550 258.305115,204.895538 
	C263.683777,217.257904 268.838470,229.717682 274.120087,242.532394 
z"/>
<path fill="#03A8E6" opacity="1.000000" stroke="none" 
	d="
M85.399704,260.989502 
	C82.009346,261.274811 79.021500,261.578156 76.033646,261.881500 
	C75.861320,261.366241 75.688995,260.850983 75.516670,260.335724 
	C84.761421,256.647217 97.495956,258.869812 102.110802,244.926544 
	C91.921082,247.808243 82.562164,251.579575 73.056137,247.021698 
	C77.506569,246.426132 81.750229,246.154922 85.993889,245.883713 
	C94.253517,248.544327 102.237961,241.464691 101.375870,232.070770 
	C101.136230,229.459427 99.880264,226.925522 99.757317,224.324554 
	C99.666725,222.407959 100.660484,220.440094 101.171082,218.495071 
	C102.610199,219.480698 104.314972,220.228500 105.445076,221.490784 
	C112.468674,229.335999 113.173767,238.354645 107.572227,246.745361 
	C104.493080,251.357697 98.816299,254.237411 94.304565,257.890686 
	C93.261230,258.735504 92.192680,259.549194 91.122910,260.750427 
	C91.110085,261.123688 91.063133,261.092194 90.740906,261.084351 
	C89.956314,261.046570 89.493958,261.016632 89.031601,260.986694 
	C87.955132,260.993622 86.878670,261.000610 85.399704,260.989502 
z"/>
<path fill="#E2AB02" opacity="1.000000" stroke="none" 
	d="
M320.845184,253.075546 
	C319.916992,250.875229 318.479156,248.746796 318.156769,246.461014 
	C317.213287,239.772339 316.820374,233.008072 316.005096,226.298538 
	C315.431091,221.574661 314.773010,216.828293 313.619446,212.225571 
	C313.224060,210.647934 311.326508,208.519150 309.909546,208.348312 
	C307.914520,208.107758 305.005981,208.835342 303.780853,210.260376 
	C301.561523,212.841858 300.264374,216.226944 298.639862,219.306946 
	C294.068939,227.973251 289.536102,236.659668 284.953247,245.319641 
	C284.661285,245.871338 284.070679,246.264984 283.304474,246.455292 
	C283.228821,245.051300 283.299805,243.854813 283.732269,242.807632 
	C288.650757,230.899109 293.593353,219.000259 298.603271,207.129944 
	C300.009552,203.797806 314.508087,202.395859 316.671875,205.309280 
	C316.863708,205.567566 316.983826,205.898422 317.068329,206.214005 
	C317.741974,208.730255 318.398987,211.250946 319.061096,213.770279 
	C319.733490,220.883621 320.535309,227.988052 321.026886,235.113861 
	C321.296570,239.024231 320.945129,242.973801 321.070282,246.899414 
	C321.125732,248.637756 321.668274,250.360565 321.680298,252.539917 
	C321.195648,253.018127 321.020416,253.046844 320.845184,253.075546 
z"/>
<path fill="#67E33E" opacity="1.000000" stroke="none" 
	d="
M206.860229,230.793457 
	C206.449844,229.883835 206.039444,228.974213 205.474747,227.920288 
	C211.109283,228.370682 219.937943,235.513016 222.938660,242.562576 
	C230.852707,261.154907 227.175873,273.458527 213.863754,286.438263 
	C211.102997,289.130096 206.588760,290.720551 202.644775,291.366791 
	C192.244507,293.070923 181.819214,293.281738 172.392700,286.351593 
	C172.357010,285.524994 172.418381,285.289154 172.479736,285.053314 
	C175.275330,286.085724 178.070923,287.118134 181.594666,288.213135 
	C191.797516,290.746887 201.214249,291.060852 209.747086,285.588593 
	C221.626602,277.970093 224.566666,265.816071 223.443634,253.003738 
	C222.554016,242.854523 217.380783,234.465027 206.860229,230.793457 
z"/>
<path fill="#01D77A" opacity="1.000000" stroke="none" 
	d="
M172.337860,284.706024 
	C172.418381,285.289154 172.357010,285.524994 172.189453,286.111877 
	C162.241867,278.741486 158.919800,268.232330 159.709229,256.266663 
	C160.771133,240.171097 171.611542,228.032913 187.450897,225.640717 
	C192.351318,224.900604 197.538635,226.059906 202.776123,226.613098 
	C201.383713,227.003952 199.796097,227.332123 198.238052,227.225998 
	C187.961151,226.525818 178.559875,228.770203 171.811783,236.927399 
	C167.075745,242.652374 164.218140,249.238235 163.698059,257.215729 
	C163.016144,267.675446 166.049759,276.349335 172.337860,284.706024 
z"/>
<path fill="#EC481D" opacity="1.000000" stroke="none" 
	d="
M347.008362,290.836731 
	C354.509064,290.929016 362.085907,291.399628 369.042236,286.042450 
	C371.438080,286.317474 373.319672,287.313080 375.319672,287.706146 
	C378.043182,288.241425 381.056793,289.012726 383.548431,288.297607 
	C384.805237,287.936920 385.546143,284.580505 385.868927,282.478668 
	C386.240753,280.057434 385.893402,277.525696 385.858368,275.041962 
	C386.921936,262.563934 385.099518,250.294266 382.363037,238.234207 
	C381.188385,233.057266 376.481934,230.035492 371.518890,228.120300 
	C370.138611,227.587662 368.621307,227.410187 366.706787,226.771301 
	C366.208771,226.283173 366.170807,226.093506 366.132874,225.903854 
	C377.754303,226.320145 386.368317,234.358688 387.270599,246.088684 
	C387.780090,252.712341 387.600464,259.386353 387.862274,266.032501 
	C388.136597,272.996613 388.460419,279.962524 388.979462,286.911469 
	C389.209747,289.994202 388.466888,291.661621 385.055420,291.635345 
	C381.740387,291.609863 378.389679,292.216553 375.121216,291.886475 
	C373.542786,291.727112 372.117188,290.054932 369.993683,288.652527 
	C362.289825,293.321167 353.220490,294.066559 343.855286,291.172974 
	C344.946075,290.911926 345.977234,290.874329 347.008362,290.836731 
z"/>
<path fill="#E18D01" opacity="1.000000" stroke="none" 
	d="
M356.810181,227.056427 
	C355.696075,229.430862 354.581970,231.805298 353.228058,234.690857 
	C353.948120,234.922562 355.323486,235.848083 356.545807,235.677490 
	C362.891205,234.791779 365.847992,240.065628 370.112061,242.912338 
	C370.561768,243.212570 370.420685,244.397659 370.399048,245.409515 
	C363.794891,238.533005 357.475372,238.262573 348.094849,244.661591 
	C343.485443,244.953293 341.136810,242.498428 340.727692,239.070496 
	C340.465637,236.875214 341.447754,233.251236 343.040894,232.362228 
	C347.293427,229.989288 352.177277,228.747681 356.810181,227.056427 
z"/>
<path fill="#E18D01" opacity="1.000000" stroke="none" 
	d="
M346.742065,290.635803 
	C345.977234,290.874329 344.946075,290.911926 343.533051,290.988770 
	C334.830261,287.861816 329.746307,279.998871 330.446167,271.378082 
	C331.273102,261.191986 335.814087,255.583206 345.241516,253.275909 
	C347.485168,252.726776 349.803101,252.480850 352.506622,252.061340 
	C352.926392,252.027222 352.966492,252.070724 352.855469,252.290115 
	C352.524292,252.987228 352.304138,253.464935 352.083984,253.942642 
	C349.578461,254.767700 347.057648,255.549408 344.570282,256.425934 
	C337.151672,259.040222 333.557587,264.382080 332.971741,272.160522 
	C332.352325,280.384430 337.384552,284.910065 343.341766,288.936401 
	C344.290588,289.577667 345.426392,289.942291 346.742065,290.635803 
z"/>
<path fill="#DEB524" opacity="1.000000" stroke="none" 
	d="
M319.223572,213.464203 
	C318.398987,211.250946 317.741974,208.730255 317.068329,206.214005 
	C316.983826,205.898422 316.863708,205.567566 316.671875,205.309280 
	C314.508087,202.395859 300.009552,203.797806 298.603271,207.129944 
	C293.593353,219.000259 288.650757,230.899109 283.732269,242.807632 
	C283.299805,243.854813 283.228821,245.051300 282.982452,246.564545 
	C282.974945,246.950668 282.974304,246.979996 282.789490,247.122101 
	C282.380096,247.463425 282.195160,247.694351 282.049866,247.957031 
	C282.049866,247.957031 282.001160,248.003525 281.800232,248.161728 
	C281.375061,248.519348 281.180878,248.744720 281.016815,248.996048 
	C281.016815,248.996048 280.592468,249.007904 280.380310,249.014404 
	C280.970734,246.198898 281.536346,243.282410 282.617279,240.571381 
	C287.043304,229.470840 291.593079,218.419144 296.171295,207.380142 
	C297.631927,203.858337 299.692078,201.081451 304.259430,202.034668 
	C305.531433,202.300125 306.906555,202.073227 308.234375,202.069260 
	C319.181061,202.036560 319.181061,202.036331 319.223572,213.464203 
z"/>
<path fill="#DEB524" opacity="1.000000" stroke="none" 
	d="
M320.872925,253.527863 
	C321.020416,253.046844 321.195648,253.018127 321.635345,252.956726 
	C322.918335,264.246979 323.807800,275.583954 325.037415,286.883942 
	C325.386902,290.095520 324.519409,291.125092 321.415436,290.988861 
	C317.760834,290.828461 314.081635,290.765137 310.435730,291.004395 
	C307.008148,291.229309 306.168915,289.607574 306.119171,286.568634 
	C305.983154,278.263855 305.654877,269.962219 305.673584,261.363831 
	C306.605072,264.785156 307.265656,268.502014 307.946411,273.076080 
	C308.038269,277.594788 308.109955,281.256317 308.169250,285.316895 
	C309.333344,286.795441 310.354736,288.447937 311.723206,288.818451 
	C313.714874,289.357697 315.957550,289.020721 318.091370,288.973663 
	C323.091919,288.863464 323.591492,288.082642 322.048096,282.551331 
	C322.026459,280.780273 322.006714,279.419098 321.987000,278.057892 
	C321.624908,270.031982 321.262787,262.006104 320.872925,253.527863 
z"/>
<path fill="#DEB524" opacity="1.000000" stroke="none" 
	d="
M357.286011,227.020981 
	C352.177277,228.747681 347.293427,229.989288 343.040894,232.362228 
	C341.447754,233.251236 340.465637,236.875214 340.727692,239.070496 
	C341.136810,242.498428 343.485443,244.953293 347.773163,244.800797 
	C344.794434,248.600082 342.578369,247.788162 340.236908,243.803955 
	C334.529419,234.092270 335.090546,232.387360 345.829376,227.806015 
	C352.257538,225.063660 358.785156,223.882599 365.912079,225.591949 
	C366.170807,226.093506 366.208771,226.283173 366.347412,226.745789 
	C363.552673,227.007660 360.657257,226.996597 357.286011,227.020981 
z"/>
<path fill="#03BCEA" opacity="1.000000" stroke="none" 
	d="
M138.848145,232.953979 
	C135.843674,227.857025 130.662323,229.100418 124.780937,228.577225 
	C124.780937,240.247437 124.780937,251.650833 124.780937,263.054230 
	C124.354347,263.052856 123.927765,263.051453 123.501175,263.050079 
	C123.314224,258.931335 123.127266,254.812576 122.717377,250.340942 
	C122.347847,243.726303 122.194160,237.464691 122.057571,231.202713 
	C121.986954,227.965363 123.324417,226.251114 126.822701,226.651413 
	C128.453415,226.837997 130.134781,226.874161 131.765884,226.708984 
	C136.264816,226.253357 139.222763,227.481537 138.848145,232.953979 
z"/>
<path fill="#DEB524" opacity="1.000000" stroke="none" 
	d="
M281.809509,276.946442 
	C282.640625,275.653412 283.471741,274.360382 284.609924,272.922241 
	C283.859528,275.476471 283.144440,278.385284 281.654938,280.820404 
	C279.924347,283.649658 275.386322,282.793335 273.703491,279.397430 
	C270.957275,273.855743 268.410004,268.215485 265.908234,262.362335 
	C266.470703,262.085266 266.903687,262.062683 267.661438,262.041077 
	C267.986206,262.042084 268.044220,262.514099 268.189178,262.951172 
	C268.523590,263.642487 268.756836,263.846802 269.033875,264.001129 
	C269.310364,264.477448 269.586884,264.953766 269.948212,266.043884 
	C270.695221,267.766998 271.357361,268.876312 272.035095,269.989807 
	C272.050659,269.993988 272.085327,269.986969 272.085327,269.986969 
	C272.083374,270.155212 272.081421,270.323425 272.123169,271.021027 
	C272.458527,272.016663 272.750183,272.482880 273.041840,272.949127 
	C273.283386,273.147675 273.505798,273.365753 273.877594,274.153320 
	C276.312500,280.567932 278.352051,281.157257 281.809509,276.946442 
z"/>
<path fill="#E93509" opacity="1.000000" stroke="none" 
	d="
M455.146667,289.269165 
	C454.624878,285.472839 454.087891,281.370575 454.061066,277.264984 
	C454.010193,269.467529 454.251251,261.668182 454.531433,253.509171 
	C454.915070,265.086395 455.138428,277.024078 455.146667,289.269165 
z"/>
<path fill="#DEB524" opacity="1.000000" stroke="none" 
	d="
M285.322815,272.145935 
	C287.953369,266.154694 290.911133,259.994690 294.034607,253.646606 
	C291.350189,259.631409 288.500122,265.804291 285.322815,272.145935 
z"/>
<path fill="#E93509" opacity="1.000000" stroke="none" 
	d="
M454.247437,248.335358 
	C454.067963,247.743103 453.987122,246.904266 453.906738,245.810120 
	C454.053497,246.399460 454.199799,247.244125 454.247437,248.335358 
z"/>
<path fill="#E93509" opacity="1.000000" stroke="none" 
	d="
M453.547852,243.583740 
	C453.314148,243.201584 453.161774,242.570511 453.025391,241.699158 
	C453.237335,242.084183 453.433289,242.709503 453.547852,243.583740 
z"/>
<path fill="#DEB524" opacity="1.000000" stroke="none" 
	d="
M275.098999,245.563812 
	C274.771301,245.115143 274.413361,244.317184 274.079224,243.175476 
	C274.424927,243.626007 274.746857,244.420242 275.098999,245.563812 
z"/>
<path fill="#03BCEA" opacity="1.000000" stroke="none" 
	d="
M89.194519,261.164703 
	C89.493958,261.016632 89.956314,261.046570 90.766869,261.072968 
	C90.529190,261.160522 89.943321,261.251617 89.194519,261.164703 
z"/>
<path fill="#E18D01" opacity="1.000000" stroke="none" 
	d="
M321.659119,277.894775 
	C322.006714,279.419098 322.026459,280.780273 321.793304,282.801392 
	C317.675659,289.341339 312.876099,286.647522 308.181641,284.917816 
	C308.109955,281.256317 308.038269,277.594788 307.965820,273.476257 
	C309.105499,269.178406 310.245880,265.337555 311.743195,260.294556 
	C312.861481,260.932068 315.447266,261.525940 316.270966,263.063660 
	C317.858154,266.026611 318.412994,269.534912 319.467834,272.793793 
	C320.008972,274.465637 320.705200,276.087311 321.659119,277.894775 
z"/>
<path fill="#E18D01" opacity="1.000000" stroke="none" 
	d="
M272.046326,267.005402 
	C272.161346,266.077179 272.708221,264.878174 272.322906,264.263641 
	C269.293335,259.431396 272.769440,256.749573 275.751587,254.207443 
	C278.418488,251.934036 284.997437,256.084717 284.726318,260.427643 
	C284.468658,264.555328 282.768341,268.682892 281.095734,272.548035 
	C280.800537,273.230194 277.457855,272.916229 275.651581,272.500946 
	C274.566895,272.251556 273.732269,270.914795 272.435303,270.026855 
	C272.085327,269.986969 272.050659,269.993988 272.041443,269.617371 
	C272.036957,268.495605 272.041656,267.750519 272.046326,267.005402 
z"/>
<path fill="#E2AB02" opacity="1.000000" stroke="none" 
	d="
M281.438019,276.956665 
	C278.352051,281.157257 276.312500,280.567932 274.023071,274.336365 
	C276.355530,274.968597 278.710999,275.967743 281.438019,276.956665 
z"/>
<path fill="#E2AB02" opacity="1.000000" stroke="none" 
	d="
M271.787842,266.880402 
	C272.041656,267.750519 272.036957,268.495605 272.025879,269.613159 
	C271.357361,268.876312 270.695221,267.766998 270.015900,266.314209 
	C270.508942,266.232269 271.019135,266.493835 271.787842,266.880402 
z"/>
<path fill="#E2AB02" opacity="1.000000" stroke="none" 
	d="
M272.976837,272.680054 
	C272.750183,272.482880 272.458527,272.016663 272.124573,271.273376 
	C272.358795,271.467865 272.635315,271.939392 272.976837,272.680054 
z"/>
<path fill="#E2AB02" opacity="1.000000" stroke="none" 
	d="
M268.895325,263.815918 
	C268.756836,263.846802 268.523590,263.642487 268.216431,263.187378 
	C268.341003,263.177826 268.560364,263.392548 268.895325,263.815918 
z"/>
<path fill="#E2AB02" opacity="1.000000" stroke="none" 
	d="
M282.227539,247.823792 
	C282.195160,247.694351 282.380096,247.463425 282.786133,247.134949 
	C282.815765,247.263199 282.628296,247.491501 282.227539,247.823792 
z"/>
<path fill="#E2AB02" opacity="1.000000" stroke="none" 
	d="
M281.196045,248.862198 
	C281.180878,248.744720 281.375061,248.519348 281.777893,248.186920 
	C281.796936,248.308182 281.603210,248.533005 281.196045,248.862198 
z"/>
<path fill="#000000" opacity="1.000000" stroke="none" 
	d="
M86.299347,245.694885 
	C81.750229,246.154922 77.506569,246.426132 72.833328,246.735168 
	C72.403755,246.773010 72.351891,246.848450 72.343414,246.400452 
	C71.929550,237.063675 71.524170,228.174911 71.118782,219.286133 
	C75.600464,219.274551 80.086678,219.130051 84.562759,219.282608 
	C91.246292,219.510345 98.087234,225.580429 98.994781,231.862793 
	C99.533325,235.590820 95.829971,241.693527 91.718979,243.630264 
	C90.082817,244.401062 88.313499,244.889236 86.299347,245.694885 
z"/>
<path fill="#03A8E6" opacity="1.000000" stroke="none" 
	d="
M71.018906,218.987366 
	C71.524170,228.174911 71.929550,237.063675 72.370651,246.366333 
	C70.942703,244.855194 69.052757,243.116470 68.111641,240.963058 
	C66.557167,237.406235 65.749825,233.528778 64.325157,229.905365 
	C63.944256,228.936615 62.247440,227.643661 61.543968,227.846893 
	C60.567020,228.129120 59.471802,229.595886 59.273674,230.706573 
	C58.374573,235.746887 57.673046,240.828796 57.088070,245.917297 
	C56.277302,252.969803 55.634529,260.041626 54.042484,267.079865 
	C54.042484,258.711884 54.042484,250.343918 54.013836,241.510773 
	C54.653782,239.404404 55.672497,237.816284 55.930721,236.112885 
	C57.084896,228.499268 58.128662,220.864700 58.986664,213.212402 
	C59.342678,210.037170 60.740040,208.741791 63.848827,209.258179 
	C65.314590,209.501648 66.777267,209.764343 68.239082,210.030746 
	C72.676247,210.839371 73.303490,212.210495 71.274887,216.357971 
	C70.945358,217.031677 71.027290,217.906647 71.018906,218.987366 
z"/>
<path fill="#E93509" opacity="1.000000" stroke="none" 
	d="
M385.533325,274.884125 
	C385.893402,277.525696 386.240753,280.057434 385.868927,282.478668 
	C385.546143,284.580505 384.805237,287.936920 383.548431,288.297607 
	C381.056793,289.012726 378.043182,288.241425 375.319672,287.706146 
	C373.319672,287.313080 371.438080,286.317474 369.228088,285.740997 
	C365.860596,286.258606 362.772919,286.836731 359.675018,286.898132 
	C358.255829,286.926270 356.816528,285.938385 355.386322,285.411316 
	C356.313171,284.220978 357.212006,283.007141 358.180084,281.851318 
	C358.595551,281.355347 359.154907,280.979889 360.191833,280.259460 
	C361.810272,279.647003 362.885712,279.324738 364.298431,278.976929 
	C365.424896,278.295532 366.214111,277.639648 367.210510,276.716400 
	C368.972473,274.001831 370.527252,271.554657 372.082062,269.107483 
	C375.313965,266.792511 373.941345,264.406494 372.351746,261.837189 
	C371.216156,260.001831 370.444458,257.941284 369.839294,256.671387 
	C372.825500,254.531250 374.956024,252.942535 377.149506,251.446030 
	C381.019348,248.805740 382.064056,252.416458 382.434204,254.569458 
	C383.129700,258.615173 382.652191,262.848541 383.105621,266.954926 
	C383.396667,269.590637 384.480072,272.138855 385.533325,274.884125 
z"/>
<path fill="#EC481D" opacity="1.000000" stroke="none" 
	d="
M372.064819,268.688507 
	C370.527252,271.554657 368.972473,274.001831 366.879028,276.754272 
	C365.547302,277.707123 364.754242,278.354767 363.961182,279.002441 
	C362.885712,279.324738 361.810272,279.647003 360.398010,279.982086 
	C357.169891,279.355438 354.240326,278.851379 351.395386,278.047729 
	C345.871643,276.487396 344.439789,271.057892 348.338715,266.820007 
	C351.890717,262.959106 364.553284,260.030640 369.108429,262.607269 
	C370.659485,263.484619 371.099762,266.325745 372.064819,268.688507 
M367.937012,273.291321 
	C368.836975,270.609894 369.736908,267.928467 370.765503,264.863678 
	C366.758453,264.863678 364.198273,264.492340 361.795319,264.948700 
	C357.966003,265.675995 353.900238,266.332916 350.562988,268.164642 
	C346.805603,270.226929 347.214752,273.046143 350.953308,275.290924 
	C356.739838,278.765350 362.069916,276.706421 367.937012,273.291321 
z"/>
<path fill="#EC481D" opacity="1.000000" stroke="none" 
	d="
M352.539673,253.950806 
	C352.304138,253.464935 352.524292,252.987228 352.884613,252.285065 
	C357.788391,252.060638 362.552002,252.060638 367.315613,252.060638 
	C367.334412,252.575043 367.353180,253.089462 367.371979,253.603867 
	C362.579773,253.722244 357.787567,253.840607 352.539673,253.950806 
z"/>
<path fill="#1DDB06" opacity="1.000000" stroke="none" 
	d="
M206.392181,230.750671 
	C217.380783,234.465027 222.554016,242.854523 223.443634,253.003738 
	C224.566666,265.816071 221.626602,277.970093 209.747086,285.588593 
	C201.214249,291.060852 191.797516,290.746887 182.001282,288.211090 
	C180.308289,286.334015 178.910187,284.540955 177.573990,282.702881 
	C176.568192,281.319305 175.641800,279.878021 174.680054,278.462433 
	C176.169724,277.589447 177.659393,276.716461 179.782669,275.970093 
	C185.964142,277.230804 191.872375,280.163483 196.987610,279.138519 
	C209.001709,276.731171 215.052002,264.494659 211.139160,252.705444 
	C210.301910,250.182877 207.848602,248.196701 205.986938,245.679443 
	C204.832123,244.292252 203.830124,243.189041 202.753571,241.801849 
	C202.112061,240.979340 201.545090,240.440811 200.978134,239.902283 
	C198.424713,238.569397 195.799698,237.353928 193.345917,235.857620 
	C191.971939,235.019791 190.881729,233.716583 189.663651,232.623077 
	C191.143951,231.860733 192.593979,230.527710 194.110428,230.447311 
	C198.032684,230.239319 201.984253,230.583923 206.392181,230.750671 
z"/>
<path fill="#000000" opacity="1.000000" stroke="none" 
	d="
M202.828140,242.085831 
	C203.830124,243.189041 204.832123,244.292252 205.995544,246.049469 
	C206.665573,247.545898 207.241547,248.355392 207.672119,249.235992 
	C211.351761,256.761658 210.453598,266.614716 205.617050,272.083344 
	C198.442673,280.195312 187.515717,278.944458 179.022324,269.038910 
	C178.988388,268.853455 178.954453,268.667969 178.752533,267.928375 
	C178.335999,266.633606 178.087448,265.893005 177.788956,264.734863 
	C177.595901,263.333740 177.428650,262.352936 177.313599,261.366058 
	C176.542389,254.751099 177.784012,248.670044 183.115173,244.279282 
	C188.276993,240.028015 194.047226,239.119980 200.182755,242.567886 
	C200.784286,242.905914 201.933273,242.269775 202.828140,242.085831 
z"/>
<path fill="#67E33E" opacity="1.000000" stroke="none" 
	d="
M178.805954,269.293213 
	C187.515717,278.944458 198.442673,280.195312 205.617050,272.083344 
	C210.453598,266.614716 211.351761,256.761658 207.672119,249.235992 
	C207.241547,248.355392 206.665573,247.545898 206.148376,246.333435 
	C207.848602,248.196701 210.301910,250.182877 211.139160,252.705444 
	C215.052002,264.494659 209.001709,276.731171 196.987610,279.138519 
	C191.872375,280.163483 185.964142,277.230804 180.197433,275.912781 
	C179.515594,273.668427 179.052582,271.608002 178.805954,269.293213 
z"/>
<path fill="#01D77A" opacity="1.000000" stroke="none" 
	d="
M202.753571,241.801849 
	C201.933273,242.269775 200.784286,242.905914 200.182755,242.567886 
	C194.047226,239.119980 188.276993,240.028015 183.115173,244.279282 
	C177.784012,248.670044 176.542389,254.751099 177.313599,261.366058 
	C177.428650,262.352936 177.595901,263.333740 177.544449,264.755981 
	C177.349899,265.194580 176.863831,265.253265 176.863831,265.253265 
	C172.930374,258.713440 174.849762,252.085464 177.960846,246.341690 
	C181.463806,239.874451 188.291916,238.639587 195.265701,239.125488 
	C196.905396,239.239731 198.523300,239.666779 200.564682,239.926102 
	C201.545090,240.440811 202.112061,240.979340 202.753571,241.801849 
z"/>
<path fill="#67E33E" opacity="1.000000" stroke="none" 
	d="
M176.933075,265.538757 
	C176.863831,265.253265 177.349899,265.194580 177.594406,265.173462 
	C178.087448,265.893005 178.335999,266.633606 178.629242,267.673828 
	C178.116745,267.257050 177.559540,266.540649 176.933075,265.538757 
z"/>
<path fill="#E99D03" opacity="1.000000" stroke="none" 
	d="
M308.169250,285.316895 
	C312.876099,286.647522 317.675659,289.341339 321.795227,283.211243 
	C323.591492,288.082642 323.091919,288.863464 318.091370,288.973663 
	C315.957550,289.020721 313.714874,289.357697 311.723206,288.818451 
	C310.354736,288.447937 309.333344,286.795441 308.169250,285.316895 
z"/>
<path fill="#EA5D05" opacity="1.000000" stroke="none" 
	d="
M364.298431,278.976929 
	C364.754242,278.354767 365.547302,277.707123 366.671875,277.021606 
	C366.214111,277.639648 365.424896,278.295532 364.298431,278.976929 
z"/>
<path fill="#000000" opacity="1.000000" stroke="none" 
	d="
M367.613403,273.528931 
	C362.069916,276.706421 356.739838,278.765350 350.953308,275.290924 
	C347.214752,273.046143 346.805603,270.226929 350.562988,268.164642 
	C353.900238,266.332916 357.966003,265.675995 361.795319,264.948700 
	C364.198273,264.492340 366.758453,264.863678 370.765503,264.863678 
	C369.736908,267.928467 368.836975,270.609894 367.613403,273.528931 
z"/>
</svg>